<svg width="1200" height="900" viewBox="0 0 1200 900" fill="none" xmlns="http://www.w3.org/2000/svg">
  <rect width="1200" height="900" rx="48" fill="#F5F5F7"/>
  <rect x="118" y="126" width="964" height="648" rx="40" fill="#FFFFFF"/>
  <rect x="172" y="188" width="346" height="132" rx="26" fill="#F5F5F7"/>
  <rect x="182" y="198" width="118" height="40" rx="20" fill="#000000"/>
  <rect x="182" y="258" width="236" height="18" rx="9" fill="#D2D2D7"/>
  <rect x="182" y="284" width="198" height="18" rx="9" fill="#E5E5EA"/>

  <rect x="586" y="182" width="286" height="184" rx="34" fill="#F5F5F7"/>
  <rect x="612" y="208" width="96" height="96" rx="24" fill="#FFFFFF"/>
  <rect x="728" y="208" width="118" height="18" rx="9" fill="#000000"/>
  <rect x="728" y="240" width="94" height="14" rx="7" fill="#D2D2D7"/>
  <rect x="728" y="264" width="144" height="14" rx="7" fill="#D2D2D7"/>

  <rect x="170" y="382" width="246" height="238" rx="34" fill="#F5F5F7"/>
  <rect x="200" y="414" width="184" height="18" rx="9" fill="#D2D2D7"/>
  <rect x="200" y="446" width="156" height="18" rx="9" fill="#E5E5EA"/>
  <rect x="200" y="478" width="168" height="18" rx="9" fill="#E5E5EA"/>
  <rect x="200" y="516" width="108" height="108" rx="30" fill="#000000"/>

  <rect x="468" y="406" width="480" height="280" rx="38" fill="#FFFFFF" stroke="#E5E5EA"/>
  <rect x="500" y="438" width="160" height="18" rx="9" fill="#D2D2D7"/>
  <rect x="500" y="474" width="314" height="20" rx="10" fill="#000000"/>
  <rect x="500" y="514" width="372" height="16" rx="8" fill="#E5E5EA"/>
  <rect x="500" y="548" width="344" height="16" rx="8" fill="#E5E5EA"/>
  <rect x="500" y="592" width="120" height="52" rx="26" fill="#F5F5F7"/>
  <rect x="634" y="592" width="160" height="52" rx="26" fill="#000000"/>

  <circle cx="956" cy="210" r="22" fill="#000000"/>
  <circle cx="956" cy="270" r="14" fill="#D2D2D7"/>
  <circle cx="956" cy="324" r="18" fill="#6E6E73"/>

  <rect x="284" y="648" width="632" height="78" rx="24" fill="#F5F5F7"/>
  <rect x="320" y="672" width="152" height="14" rx="7" fill="#D2D2D7"/>
  <rect x="320" y="696" width="220" height="14" rx="7" fill="#E5E5EA"/>
  <rect x="764" y="668" width="118" height="30" rx="15" fill="#000000"/>
</svg>

